<svg xmlns="http://www.w3.org/2000/svg" viewBox="0 0 91.44 86.97"><defs><style>.cls-1{fill:#d9dadb;}.cls-1,.cls-2,.cls-3{fill-rule:evenodd;}.cls-2,.cls-4{fill:#009ed4;}.cls-3,.cls-5{fill:#9edbf4;}</style></defs><title>Asset 1</title><g id="Layer_2" data-name="Layer 2"><g id="Layer_1-2" data-name="Layer 1"><path class="cls-1" d="M38,10.09v75l-2.15.09a82.07,82.07,0,0,1-23.69-2.2l-1.41-.38L0,15.17l2.15-.4a326.81,326.81,0,0,1,33.41-4.48Z"/><path class="cls-2" d="M35.73,12.52A322.68,322.68,0,0,0,2.55,17L12.71,80.77a80,80,0,0,0,23,2.13Z"/><polygon class="cls-3" points="3.08 20.25 35.73 20.25 35.73 19.31 2.93 19.31 3.08 20.25"/><path class="cls-3" d="M6.13,16.34h29.6v-.95H11.82C9.93,15.69,8,16,6.13,16.34Z"/><polygon class="cls-3" points="3.7 24.17 35.73 24.17 35.73 23.23 3.55 23.23 3.7 24.17"/><polygon class="cls-3" points="4.32 28.09 35.73 28.09 35.73 27.14 4.18 27.14 4.32 28.09"/><polygon class="cls-3" points="4.95 32.01 35.73 32.01 35.73 31.06 4.8 31.06 4.95 32.01"/><polygon class="cls-3" points="5.57 35.93 35.73 35.93 35.73 34.98 5.42 34.98 5.57 35.93"/><polygon class="cls-3" points="6.2 39.85 35.73 39.85 35.73 38.9 6.04 38.9 6.2 39.85"/><polygon class="cls-3" points="6.82 43.77 35.73 43.77 35.73 42.82 6.67 42.82 6.82 43.77"/><polygon class="cls-3" points="7.44 47.68 35.73 47.68 35.73 46.74 7.29 46.74 7.44 47.68"/><polygon class="cls-3" points="8.07 51.61 35.73 51.61 35.73 50.66 7.91 50.66 8.07 51.61"/><polygon class="cls-3" points="8.69 55.52 35.73 55.52 35.73 54.57 8.54 54.57 8.69 55.52"/><polygon class="cls-3" points="9.31 59.44 35.73 59.44 35.73 58.49 9.16 58.49 9.31 59.44"/><polygon class="cls-3" points="9.94 63.36 35.73 63.36 35.73 62.41 9.79 62.41 9.94 63.36"/><polygon class="cls-3" points="10.56 67.28 35.73 67.28 35.73 66.33 10.41 66.33 10.56 67.28"/><polygon class="cls-3" points="11.18 71.19 35.73 71.19 35.73 70.25 11.03 70.25 11.18 71.19"/><polygon class="cls-3" points="11.8 75.11 35.73 75.11 35.73 74.17 11.66 74.17 11.8 75.11"/><polygon class="cls-3" points="12.43 79.03 35.73 79.03 35.73 78.09 12.28 78.09 12.43 79.03"/><path class="cls-1" d="M53.47,10.09v75l2.14.09a82.13,82.13,0,0,0,23.7-2.2l1.41-.38L91.44,15.17l-2.16-.4a326.25,326.25,0,0,0-33.4-4.48Z"/><path class="cls-2" d="M55.7,12.52A322.31,322.31,0,0,1,88.88,17L78.73,80.77a80.08,80.08,0,0,1-23,2.13Z"/><polygon class="cls-3" points="88.36 20.25 55.7 20.25 55.7 19.31 88.51 19.31 88.36 20.25"/><path class="cls-3" d="M85.31,16.34H55.7v-.95H79.62C81.51,15.69,83.41,16,85.31,16.34Z"/><polygon class="cls-3" points="87.73 24.17 55.7 24.17 55.7 23.23 87.89 23.23 87.73 24.17"/><polygon class="cls-3" points="87.11 28.09 55.7 28.09 55.7 27.14 87.26 27.14 87.11 28.09"/><polygon class="cls-3" points="86.49 32.01 55.7 32.01 55.7 31.06 86.64 31.06 86.49 32.01"/><polygon class="cls-3" points="85.87 35.93 55.7 35.93 55.7 34.98 86.02 34.98 85.87 35.93"/><polygon class="cls-3" points="85.24 39.85 55.7 39.85 55.7 38.9 85.39 38.9 85.24 39.85"/><polygon class="cls-3" points="84.62 43.77 55.7 43.77 55.7 42.82 84.77 42.82 84.62 43.77"/><polygon class="cls-3" points="84 47.68 55.7 47.68 55.7 46.74 84.14 46.74 84 47.68"/><polygon class="cls-3" points="83.37 51.61 55.7 51.61 55.7 50.66 83.52 50.66 83.37 51.61"/><polygon class="cls-3" points="82.75 55.52 55.7 55.52 55.7 54.57 82.9 54.57 82.75 55.52"/><polygon class="cls-3" points="82.13 59.44 55.7 59.44 55.7 58.49 82.28 58.49 82.13 59.44"/><polygon class="cls-3" points="81.5 63.36 55.7 63.36 55.7 62.41 81.65 62.41 81.5 63.36"/><polygon class="cls-3" points="80.88 67.28 55.7 67.28 55.7 66.33 81.03 66.33 80.88 67.28"/><polygon class="cls-3" points="80.25 71.19 55.7 71.19 55.7 70.25 80.41 70.25 80.25 71.19"/><polygon class="cls-3" points="79.63 75.11 55.7 75.11 55.7 74.17 79.78 74.17 79.63 75.11"/><polygon class="cls-3" points="79.01 79.03 55.7 79.03 55.7 78.09 79.16 78.09 79.01 79.03"/><polygon class="cls-1" points="35.85 0 55.58 0 55.58 57.35 52.5 57.35 52.5 2.61 39.35 2.61 39.35 57.35 35.85 57.35 35.85 0"/><rect class="cls-4" x="39.36" y="2.61" width="13.15" height="54.74"/><rect class="cls-5" x="39.36" y="9.46" width="13.15" height="0.95"/><rect class="cls-5" x="39.36" y="5.54" width="13.15" height="0.95"/><rect class="cls-5" x="39.36" y="13.38" width="13.15" height="0.95"/><rect class="cls-5" x="39.36" y="17.29" width="13.15" height="0.95"/><rect class="cls-5" x="39.36" y="21.21" width="13.15" height="0.95"/><rect class="cls-5" x="39.36" y="25.13" width="13.15" height="0.95"/><rect class="cls-5" x="39.36" y="29.05" width="13.15" height="0.95"/><rect class="cls-5" x="39.36" y="32.97" width="13.15" height="0.95"/><rect class="cls-5" x="39.36" y="36.89" width="13.15" height="0.95"/><rect class="cls-5" x="39.36" y="40.8" width="13.15" height="0.95"/><rect class="cls-5" x="39.36" y="44.72" width="13.15" height="0.95"/><rect class="cls-5" x="39.36" y="48.64" width="13.15" height="0.95"/><rect class="cls-5" x="39.36" y="52.56" width="13.15" height="0.95"/><path class="cls-1" d="M58.13,57.35h2.19V87H58.13Zm-27,0h2.62V87H31.11Z"/><rect class="cls-4" x="33.73" y="57.35" width="24.4" height="29.62"/><rect class="cls-5" x="33.73" y="60.4" width="24.4" height="0.95"/><rect class="cls-5" x="33.73" y="64.32" width="24.4" height="0.95"/><rect class="cls-5" x="33.73" y="68.23" width="24.4" height="0.95"/><rect class="cls-5" x="33.73" y="72.15" width="24.4" height="0.95"/><text></text><rect class="cls-5" x="33.73" y="79.99" width="24.4" height="0.95"/><rect class="cls-5" x="33.73" y="83.91" width="24.4" height="0.95"/></g></g></svg>